<?xml version="1.0" encoding="UTF-8"?> <svg xmlns="http://www.w3.org/2000/svg" width="18" height="19" viewBox="0 0 18 19" fill="none"><path d="M16.9995 12.9793V15.3879C17.0032 16.3087 16.1753 17.0776 15.2457 16.9937C7.22224 17 1 10.72 1.00628 2.75039C0.922555 1.82573 1.68763 1.00094 2.60721 1.00008H5.02068C5.4111 0.996243 5.7896 1.13422 6.08563 1.3883C6.92724 2.11066 7.46858 4.56246 7.2603 5.53714C7.09768 6.2981 6.3306 6.83048 5.80907 7.35097C6.95431 9.36105 8.62193 11.0254 10.636 12.1683C11.1575 11.6478 11.691 10.8823 12.4534 10.72C13.4316 10.5118 15.8991 11.0539 16.6186 11.9014C16.8737 12.2019 17.0093 12.5855 16.9995 12.9793Z" stroke="#BFBFBF" stroke-width="1.5" stroke-linecap="round" stroke-linejoin="round"></path></svg> 