<?xml version="1.0" encoding="UTF-8"?> <svg xmlns="http://www.w3.org/2000/svg" width="18" height="19" viewBox="0 0 18 19" fill="none"><path d="M17 9.5C17 13.9183 13.4183 17.5 9 17.5C4.58172 17.5 1 13.9183 1 9.5C1 5.08172 4.58172 1.5 9 1.5C13.4183 1.5 17 5.08172 17 9.5Z" fill="white"></path><path d="M13.9748 7.36366C14.2677 7.07077 14.2677 6.5959 13.9748 6.303C13.6819 6.01011 13.207 6.01011 12.9141 6.303L13.9748 7.36366ZM7.2222 13.0556L6.69188 13.5859C6.98477 13.8788 7.45964 13.8788 7.75253 13.5859L7.2222 13.0556ZM5.08583 9.85856C4.79294 9.56567 4.31806 9.56567 4.02517 9.85856C3.73228 10.1515 3.73228 10.6263 4.02517 10.9192L5.08583 9.85856ZM12.9141 6.303L6.69187 12.5252L7.75253 13.5859L13.9748 7.36366L12.9141 6.303ZM4.02517 10.9192L6.69188 13.5859L7.75253 12.5252L5.08583 9.85856L4.02517 10.9192ZM16.25 9.5C16.25 13.5041 13.0041 16.75 9 16.75V18.25C13.8325 18.25 17.75 14.3325 17.75 9.5H16.25ZM9 16.75C4.99594 16.75 1.75 13.5041 1.75 9.5H0.25C0.25 14.3325 4.16751 18.25 9 18.25V16.75ZM1.75 9.5C1.75 5.49594 4.99594 2.25 9 2.25V0.75C4.16751 0.75 0.25 4.66751 0.25 9.5H1.75ZM9 2.25C13.0041 2.25 16.25 5.49594 16.25 9.5H17.75C17.75 4.66751 13.8325 0.75 9 0.75V2.25Z" fill="#B3E06D"></path></svg> 