<?xml version="1.0" encoding="UTF-8"?> <svg xmlns="http://www.w3.org/2000/svg" width="100" height="70" viewBox="0 0 100 70" fill="none"><rect x="0.5" y="0.5" width="99" height="69" rx="24.5" fill="white"></rect><rect x="0.5" y="0.5" width="99" height="69" rx="24.5" stroke="#ECECEC"></rect><path d="M27.7589 20.212H19.3869V17.04H33.2709L24.0929 35.5H20.1409L27.7589 20.212ZM41.9232 35.76C40.6232 35.7427 39.4706 35.448 38.4652 34.876C37.4599 34.304 36.6192 33.55 35.9432 32.614C35.2672 31.678 34.7559 30.6727 34.4092 29.598C34.0799 28.506 33.9152 27.44 33.9152 26.4C33.9152 25.2907 34.0972 24.1813 34.4612 23.072C34.8252 21.9627 35.3539 20.9573 36.0472 20.056C36.7579 19.1373 37.6072 18.4093 38.5952 17.872C39.5832 17.3173 40.6926 17.04 41.9232 17.04C43.2579 17.04 44.4192 17.3347 45.4072 17.924C46.4126 18.5133 47.2532 19.276 47.9292 20.212C48.6052 21.148 49.1079 22.162 49.4372 23.254C49.7839 24.346 49.9572 25.3947 49.9572 26.4C49.9572 27.5267 49.7752 28.6447 49.4112 29.754C49.0472 30.846 48.5099 31.8427 47.7992 32.744C47.1059 33.6453 46.2652 34.3733 45.2772 34.928C44.2892 35.4653 43.1712 35.7427 41.9232 35.76ZM37.5292 26.4C37.5466 27.128 37.6419 27.856 37.8152 28.584C38.0059 29.2947 38.2746 29.9533 38.6212 30.56C38.9852 31.1667 39.4446 31.6607 39.9992 32.042C40.5539 32.406 41.1952 32.588 41.9232 32.588C42.7032 32.588 43.3706 32.3887 43.9252 31.99C44.4799 31.5913 44.9306 31.08 45.2772 30.456C45.6412 29.832 45.9099 29.1647 46.0832 28.454C46.2566 27.7433 46.3432 27.0587 46.3432 26.4C46.3432 25.672 46.2479 24.9527 46.0572 24.242C45.8839 23.514 45.6066 22.8467 45.2252 22.24C44.8612 21.6333 44.4019 21.148 43.8472 20.784C43.3099 20.4027 42.6686 20.212 41.9232 20.212C41.1606 20.212 40.5019 20.4113 39.9472 20.81C39.3926 21.2087 38.9332 21.72 38.5692 22.344C38.2226 22.968 37.9626 23.6353 37.7892 24.346C37.6159 25.0567 37.5292 25.7413 37.5292 26.4ZM58.1257 35.682C57.1377 35.682 56.2364 35.5607 55.4217 35.318C54.6244 35.058 53.9224 34.694 53.3157 34.226C52.7264 33.7407 52.2584 33.1687 51.9117 32.51L53.7837 30.144C53.957 30.5253 54.2344 30.898 54.6157 31.262C54.997 31.626 55.4737 31.9207 56.0457 32.146C56.6177 32.3713 57.2677 32.484 57.9957 32.484C58.7064 32.484 59.3217 32.38 59.8417 32.172C60.3617 31.964 60.7604 31.678 61.0377 31.314C61.3324 30.9327 61.4797 30.4733 61.4797 29.936C61.4797 29.364 61.2977 28.8787 60.9337 28.48C60.587 28.0813 60.067 27.778 59.3737 27.57C58.6804 27.362 57.831 27.258 56.8257 27.258H55.9677V24.658H56.8777C58.1257 24.658 59.1224 24.4413 59.8677 24.008C60.6304 23.5747 61.0117 22.9593 61.0117 22.162C61.0117 21.6767 60.8817 21.2607 60.6217 20.914C60.3617 20.55 60.015 20.2813 59.5817 20.108C59.1484 19.9173 58.6717 19.822 58.1517 19.822C57.285 19.822 56.5137 20.03 55.8377 20.446C55.179 20.8447 54.6764 21.3647 54.3297 22.006L52.0677 19.484C52.449 18.9293 52.969 18.4613 53.6277 18.08C54.2864 17.6813 55.023 17.3693 55.8377 17.144C56.6697 16.9187 57.5277 16.806 58.4117 16.806C59.6424 16.806 60.7344 17.0227 61.6877 17.456C62.641 17.872 63.3864 18.444 63.9237 19.172C64.461 19.9 64.7297 20.732 64.7297 21.668C64.7297 22.3613 64.5824 22.994 64.2877 23.566C64.0104 24.138 63.6117 24.6147 63.0917 24.996C62.5717 25.3773 61.9564 25.6547 61.2457 25.828C62.0084 25.9493 62.6757 26.2353 63.2477 26.686C63.837 27.1193 64.2877 27.674 64.5997 28.35C64.929 29.0087 65.0937 29.728 65.0937 30.508C65.0937 31.6 64.7817 32.5273 64.1577 33.29C63.551 34.0527 62.719 34.642 61.6617 35.058C60.6217 35.474 59.443 35.682 58.1257 35.682ZM74.7127 35.5V31.314H66.9387V28.194L75.8047 17.04H78.1967V28.168H80.4847V31.314H78.1967V35.5H74.7127ZM70.4487 28.168H75.1027V22.292L70.4487 28.168Z" fill="#BFBFBF"></path><path d="M31.7988 49.94H28.8588V57.5H27.7788V49.94H24.8388V48.98H31.7988V49.94ZM36.224 57.56C35.624 57.56 35.08 57.44 34.592 57.2C34.104 56.96 33.68 56.636 33.32 56.228C32.968 55.812 32.696 55.348 32.504 54.836C32.312 54.316 32.216 53.784 32.216 53.24C32.216 52.672 32.316 52.132 32.516 51.62C32.724 51.1 33.008 50.64 33.368 50.24C33.736 49.832 34.164 49.512 34.652 49.28C35.14 49.04 35.672 48.92 36.248 48.92C36.848 48.92 37.392 49.044 37.88 49.292C38.368 49.54 38.788 49.872 39.14 50.288C39.492 50.704 39.764 51.168 39.956 51.68C40.148 52.192 40.244 52.716 40.244 53.252C40.244 53.82 40.144 54.364 39.944 54.884C39.744 55.396 39.46 55.856 39.092 56.264C38.732 56.664 38.308 56.98 37.82 57.212C37.332 57.444 36.8 57.56 36.224 57.56ZM33.308 53.24C33.308 53.672 33.376 54.092 33.512 54.5C33.656 54.9 33.856 55.256 34.112 55.568C34.368 55.88 34.676 56.128 35.036 56.312C35.396 56.496 35.796 56.588 36.236 56.588C36.692 56.588 37.1 56.492 37.46 56.3C37.82 56.108 38.124 55.852 38.372 55.532C38.628 55.212 38.82 54.852 38.948 54.452C39.084 54.052 39.152 53.648 39.152 53.24C39.152 52.808 39.08 52.392 38.936 51.992C38.8 51.592 38.6 51.236 38.336 50.924C38.08 50.604 37.772 50.356 37.412 50.18C37.06 49.996 36.668 49.904 36.236 49.904C35.78 49.904 35.372 50 35.012 50.192C34.652 50.376 34.344 50.628 34.088 50.948C33.84 51.268 33.648 51.628 33.512 52.028C33.376 52.42 33.308 52.824 33.308 53.24ZM48.2846 55.304C48.2846 55.744 48.1726 56.128 47.9486 56.456C47.7246 56.784 47.4206 57.04 47.0366 57.224C46.6606 57.408 46.2446 57.5 45.7886 57.5H41.7446V48.98H45.9806C46.3806 48.98 46.7246 49.088 47.0126 49.304C47.3086 49.512 47.5326 49.784 47.6846 50.12C47.8446 50.448 47.9246 50.792 47.9246 51.152C47.9246 51.568 47.8166 51.96 47.6006 52.328C47.3926 52.688 47.0926 52.956 46.7006 53.132C47.1886 53.276 47.5726 53.544 47.8526 53.936C48.1406 54.32 48.2846 54.776 48.2846 55.304ZM47.1926 55.112C47.1926 54.848 47.1326 54.604 47.0126 54.38C46.9006 54.156 46.7446 53.976 46.5446 53.84C46.3526 53.704 46.1286 53.636 45.8726 53.636H42.8246V56.564H45.7886C46.0526 56.564 46.2886 56.496 46.4966 56.36C46.7126 56.224 46.8806 56.048 47.0006 55.832C47.1286 55.608 47.1926 55.368 47.1926 55.112ZM42.8246 49.916V52.76H45.5366C45.7926 52.76 46.0166 52.696 46.2086 52.568C46.4086 52.44 46.5646 52.268 46.6766 52.052C46.7966 51.836 46.8566 51.6 46.8566 51.344C46.8566 51.072 46.8006 50.832 46.6886 50.624C46.5846 50.408 46.4366 50.236 46.2446 50.108C46.0606 49.98 45.8486 49.916 45.6086 49.916H42.8246ZM52.2116 48.98H53.1236L56.6036 57.5H55.4516L54.4436 55.004H50.8676L49.8716 57.5H48.7196L52.2116 48.98ZM54.2036 54.164L52.6676 50.228L51.0836 54.164H54.2036ZM57.7407 57.5V48.98H61.2927C61.6687 48.98 62.0127 49.06 62.3247 49.22C62.6367 49.372 62.9087 49.58 63.1407 49.844C63.3727 50.1 63.5527 50.392 63.6807 50.72C63.8087 51.04 63.8727 51.368 63.8727 51.704C63.8727 52.168 63.7687 52.612 63.5607 53.036C63.3527 53.452 63.0607 53.792 62.6847 54.056C62.3087 54.312 61.8687 54.44 61.3647 54.44H58.8207V57.5H57.7407ZM58.8207 53.48H61.3047C61.6007 53.48 61.8567 53.4 62.0727 53.24C62.2967 53.08 62.4687 52.864 62.5887 52.592C62.7167 52.32 62.7807 52.024 62.7807 51.704C62.7807 51.368 62.7087 51.068 62.5647 50.804C62.4207 50.532 62.2327 50.32 62.0007 50.168C61.7687 50.016 61.5127 49.94 61.2327 49.94H58.8207V53.48ZM65.2173 57.5V48.98H66.2973V57.5H65.2173ZM74.8745 55.304C74.8745 55.744 74.7625 56.128 74.5385 56.456C74.3145 56.784 74.0105 57.04 73.6265 57.224C73.2505 57.408 72.8345 57.5 72.3785 57.5H68.3345V48.98H72.5705C72.9705 48.98 73.3145 49.088 73.6025 49.304C73.8985 49.512 74.1225 49.784 74.2745 50.12C74.4345 50.448 74.5145 50.792 74.5145 51.152C74.5145 51.568 74.4065 51.96 74.1905 52.328C73.9825 52.688 73.6825 52.956 73.2905 53.132C73.7785 53.276 74.1625 53.544 74.4425 53.936C74.7305 54.32 74.8745 54.776 74.8745 55.304ZM73.7825 55.112C73.7825 54.848 73.7225 54.604 73.6025 54.38C73.4905 54.156 73.3345 53.976 73.1345 53.84C72.9425 53.704 72.7185 53.636 72.4625 53.636H69.4145V56.564H72.3785C72.6425 56.564 72.8785 56.496 73.0865 56.36C73.3025 56.224 73.4705 56.048 73.5905 55.832C73.7185 55.608 73.7825 55.368 73.7825 55.112ZM69.4145 49.916V52.76H72.1265C72.3825 52.76 72.6065 52.696 72.7985 52.568C72.9985 52.44 73.1545 52.268 73.2665 52.052C73.3865 51.836 73.4465 51.6 73.4465 51.344C73.4465 51.072 73.3905 50.832 73.2785 50.624C73.1745 50.408 73.0265 50.236 72.8345 50.108C72.6505 49.98 72.4385 49.916 72.1985 49.916H69.4145Z" fill="#BFBFBF"></path></svg> 