<?xml version="1.0" encoding="UTF-8"?> <svg xmlns="http://www.w3.org/2000/svg" width="101" height="70" viewBox="0 0 101 70" fill="none"><rect x="1" y="0.5" width="99" height="69" rx="24.5" fill="white"></rect><rect x="1" y="0.5" width="99" height="69" rx="24.5" stroke="#ECECEC"></rect><path d="M50.0203 29.338C50.0203 30.534 49.717 31.6173 49.1103 32.588C48.521 33.5587 47.715 34.33 46.6923 34.902C45.687 35.474 44.543 35.76 43.2603 35.76C41.8737 35.76 40.669 35.422 39.6463 34.746C38.641 34.07 37.861 33.0993 37.3063 31.834C36.7517 30.5687 36.4743 29.052 36.4743 27.284C36.4743 25.048 36.7603 23.1587 37.3323 21.616C37.9217 20.056 38.7537 18.886 39.8283 18.106C40.903 17.3087 42.1683 16.91 43.6243 16.91C44.7857 16.91 45.8517 17.1613 46.8223 17.664C47.8103 18.1667 48.6423 18.886 49.3183 19.822L47.3163 22.006C46.9003 21.3647 46.363 20.862 45.7043 20.498C45.0457 20.1167 44.335 19.926 43.5723 19.926C42.7923 19.926 42.1163 20.134 41.5443 20.55C40.9723 20.966 40.5303 21.5727 40.2183 22.37C39.9063 23.15 39.733 24.0947 39.6983 25.204C39.941 24.788 40.253 24.4327 40.6343 24.138C41.0157 23.826 41.4577 23.592 41.9603 23.436C42.463 23.2627 43.0003 23.176 43.5723 23.176C44.803 23.176 45.9037 23.4533 46.8743 24.008C47.845 24.5453 48.6077 25.282 49.1623 26.218C49.7343 27.1367 50.0203 28.1767 50.0203 29.338ZM43.2603 32.822C43.8843 32.822 44.4563 32.666 44.9763 32.354C45.4963 32.0247 45.9123 31.6 46.2243 31.08C46.5363 30.5427 46.6923 29.962 46.6923 29.338C46.6923 28.714 46.5363 28.1507 46.2243 27.648C45.9123 27.128 45.4963 26.7207 44.9763 26.426C44.4737 26.114 43.9103 25.958 43.2863 25.958C42.6623 25.958 42.0903 26.114 41.5703 26.426C41.0503 26.7207 40.6343 27.128 40.3223 27.648C40.0277 28.1507 39.8803 28.714 39.8803 29.338C39.8803 29.962 40.0363 30.5427 40.3483 31.08C40.6603 31.6 41.0763 32.0247 41.5963 32.354C42.1163 32.666 42.671 32.822 43.2603 32.822ZM60.3273 20.212H51.9553V17.04H65.8393L56.6613 35.5H52.7093L60.3273 20.212Z" fill="#BFBFBF"></path><path d="M32.2988 49.94H29.3588V57.5H28.2788V49.94H25.3388V48.98H32.2988V49.94ZM36.724 57.56C36.124 57.56 35.58 57.44 35.092 57.2C34.604 56.96 34.18 56.636 33.82 56.228C33.468 55.812 33.196 55.348 33.004 54.836C32.812 54.316 32.716 53.784 32.716 53.24C32.716 52.672 32.816 52.132 33.016 51.62C33.224 51.1 33.508 50.64 33.868 50.24C34.236 49.832 34.664 49.512 35.152 49.28C35.64 49.04 36.172 48.92 36.748 48.92C37.348 48.92 37.892 49.044 38.38 49.292C38.868 49.54 39.288 49.872 39.64 50.288C39.992 50.704 40.264 51.168 40.456 51.68C40.648 52.192 40.744 52.716 40.744 53.252C40.744 53.82 40.644 54.364 40.444 54.884C40.244 55.396 39.96 55.856 39.592 56.264C39.232 56.664 38.808 56.98 38.32 57.212C37.832 57.444 37.3 57.56 36.724 57.56ZM33.808 53.24C33.808 53.672 33.876 54.092 34.012 54.5C34.156 54.9 34.356 55.256 34.612 55.568C34.868 55.88 35.176 56.128 35.536 56.312C35.896 56.496 36.296 56.588 36.736 56.588C37.192 56.588 37.6 56.492 37.96 56.3C38.32 56.108 38.624 55.852 38.872 55.532C39.128 55.212 39.32 54.852 39.448 54.452C39.584 54.052 39.652 53.648 39.652 53.24C39.652 52.808 39.58 52.392 39.436 51.992C39.3 51.592 39.1 51.236 38.836 50.924C38.58 50.604 38.272 50.356 37.912 50.18C37.56 49.996 37.168 49.904 36.736 49.904C36.28 49.904 35.872 50 35.512 50.192C35.152 50.376 34.844 50.628 34.588 50.948C34.34 51.268 34.148 51.628 34.012 52.028C33.876 52.42 33.808 52.824 33.808 53.24ZM48.7846 55.304C48.7846 55.744 48.6726 56.128 48.4486 56.456C48.2246 56.784 47.9206 57.04 47.5366 57.224C47.1606 57.408 46.7446 57.5 46.2886 57.5H42.2446V48.98H46.4806C46.8806 48.98 47.2246 49.088 47.5126 49.304C47.8086 49.512 48.0326 49.784 48.1846 50.12C48.3446 50.448 48.4246 50.792 48.4246 51.152C48.4246 51.568 48.3166 51.96 48.1006 52.328C47.8926 52.688 47.5926 52.956 47.2006 53.132C47.6886 53.276 48.0726 53.544 48.3526 53.936C48.6406 54.32 48.7846 54.776 48.7846 55.304ZM47.6926 55.112C47.6926 54.848 47.6326 54.604 47.5126 54.38C47.4006 54.156 47.2446 53.976 47.0446 53.84C46.8526 53.704 46.6286 53.636 46.3726 53.636H43.3246V56.564H46.2886C46.5526 56.564 46.7886 56.496 46.9966 56.36C47.2126 56.224 47.3806 56.048 47.5006 55.832C47.6286 55.608 47.6926 55.368 47.6926 55.112ZM43.3246 49.916V52.76H46.0366C46.2926 52.76 46.5166 52.696 46.7086 52.568C46.9086 52.44 47.0646 52.268 47.1766 52.052C47.2966 51.836 47.3566 51.6 47.3566 51.344C47.3566 51.072 47.3006 50.832 47.1886 50.624C47.0846 50.408 46.9366 50.236 46.7446 50.108C46.5606 49.98 46.3486 49.916 46.1086 49.916H43.3246ZM52.7116 48.98H53.6236L57.1036 57.5H55.9516L54.9436 55.004H51.3676L50.3716 57.5H49.2196L52.7116 48.98ZM54.7036 54.164L53.1676 50.228L51.5836 54.164H54.7036ZM58.2407 57.5V48.98H61.7927C62.1687 48.98 62.5127 49.06 62.8247 49.22C63.1367 49.372 63.4087 49.58 63.6407 49.844C63.8727 50.1 64.0527 50.392 64.1807 50.72C64.3087 51.04 64.3727 51.368 64.3727 51.704C64.3727 52.168 64.2687 52.612 64.0607 53.036C63.8527 53.452 63.5607 53.792 63.1847 54.056C62.8087 54.312 62.3687 54.44 61.8647 54.44H59.3207V57.5H58.2407ZM59.3207 53.48H61.8047C62.1007 53.48 62.3567 53.4 62.5727 53.24C62.7967 53.08 62.9687 52.864 63.0887 52.592C63.2167 52.32 63.2807 52.024 63.2807 51.704C63.2807 51.368 63.2087 51.068 63.0647 50.804C62.9207 50.532 62.7327 50.32 62.5007 50.168C62.2687 50.016 62.0127 49.94 61.7327 49.94H59.3207V53.48ZM65.7173 57.5V48.98H66.7973V57.5H65.7173ZM75.3745 55.304C75.3745 55.744 75.2625 56.128 75.0385 56.456C74.8145 56.784 74.5105 57.04 74.1265 57.224C73.7505 57.408 73.3345 57.5 72.8785 57.5H68.8345V48.98H73.0705C73.4705 48.98 73.8145 49.088 74.1025 49.304C74.3985 49.512 74.6225 49.784 74.7745 50.12C74.9345 50.448 75.0145 50.792 75.0145 51.152C75.0145 51.568 74.9065 51.96 74.6905 52.328C74.4825 52.688 74.1825 52.956 73.7905 53.132C74.2785 53.276 74.6625 53.544 74.9425 53.936C75.2305 54.32 75.3745 54.776 75.3745 55.304ZM74.2825 55.112C74.2825 54.848 74.2225 54.604 74.1025 54.38C73.9905 54.156 73.8345 53.976 73.6345 53.84C73.4425 53.704 73.2185 53.636 72.9625 53.636H69.9145V56.564H72.8785C73.1425 56.564 73.3785 56.496 73.5865 56.36C73.8025 56.224 73.9705 56.048 74.0905 55.832C74.2185 55.608 74.2825 55.368 74.2825 55.112ZM69.9145 49.916V52.76H72.6265C72.8825 52.76 73.1065 52.696 73.2985 52.568C73.4985 52.44 73.6545 52.268 73.7665 52.052C73.8865 51.836 73.9465 51.6 73.9465 51.344C73.9465 51.072 73.8905 50.832 73.7785 50.624C73.6745 50.408 73.5265 50.236 73.3345 50.108C73.1505 49.98 72.9385 49.916 72.6985 49.916H69.9145Z" fill="#BFBFBF"></path></svg> 