<?xml version="1.0" encoding="UTF-8"?> <svg xmlns="http://www.w3.org/2000/svg" width="100" height="70" viewBox="0 0 100 70" fill="none"><rect x="0.5" y="0.5" width="99" height="69" rx="24.5" fill="white"></rect><rect x="0.5" y="0.5" width="99" height="69" rx="24.5" stroke="#ECECEC"></rect><path d="M41.5127 32.354V35.5H31.0607V32.354H34.6487V20.342C34.5101 20.55 34.2761 20.784 33.9467 21.044C33.6347 21.2867 33.2707 21.5293 32.8547 21.772C32.4561 21.9973 32.0401 22.188 31.6067 22.344C31.1907 22.5 30.8094 22.578 30.4627 22.578V19.354C30.9307 19.354 31.4074 19.2327 31.8927 18.99C32.3781 18.7473 32.8287 18.47 33.2447 18.158C33.6607 17.846 33.9901 17.56 34.2327 17.3C34.4927 17.0227 34.6314 16.8753 34.6487 16.858H38.2107V32.354H41.5127ZM54.2588 32.354V35.5H43.8068V32.354H47.3948V20.342C47.2562 20.55 47.0222 20.784 46.6928 21.044C46.3808 21.2867 46.0168 21.5293 45.6008 21.772C45.2022 21.9973 44.7862 22.188 44.3528 22.344C43.9368 22.5 43.5555 22.578 43.2088 22.578V19.354C43.6768 19.354 44.1535 19.2327 44.6388 18.99C45.1242 18.7473 45.5748 18.47 45.9908 18.158C46.4068 17.846 46.7362 17.56 46.9788 17.3C47.2388 17.0227 47.3775 16.8753 47.3948 16.858H50.9568V32.354H54.2588ZM55.9029 35.5C55.9029 34.4427 55.9722 33.5153 56.1109 32.718C56.2496 31.9033 56.4662 31.184 56.7609 30.56C57.0729 29.9187 57.4716 29.3553 57.9569 28.87C58.4422 28.3847 59.0402 27.9253 59.7509 27.492C60.3576 27.1453 60.9816 26.8073 61.6229 26.478C62.2816 26.1487 62.8882 25.802 63.4429 25.438C64.0149 25.074 64.4742 24.658 64.8209 24.19C65.1849 23.722 65.3669 23.15 65.3669 22.474C65.3669 21.954 65.2542 21.512 65.0289 21.148C64.8209 20.7667 64.5089 20.472 64.0929 20.264C63.6942 20.056 63.2089 19.952 62.6369 19.952C61.9782 19.952 61.3629 20.0733 60.7909 20.316C60.2362 20.5413 59.7336 20.8273 59.2829 21.174C58.8496 21.5033 58.4769 21.8327 58.1649 22.162L55.9809 19.874C56.2236 19.5967 56.5529 19.2847 56.9689 18.938C57.4022 18.5913 57.9136 18.2533 58.5029 17.924C59.1096 17.5947 59.7942 17.326 60.5569 17.118C61.3196 16.91 62.1602 16.806 63.0789 16.806C64.4309 16.806 65.5662 17.0487 66.4849 17.534C67.4036 18.002 68.0969 18.652 68.5649 19.484C69.0502 20.2987 69.2929 21.2433 69.2929 22.318C69.2929 23.098 69.1629 23.7913 68.9029 24.398C68.6602 24.9873 68.3222 25.5073 67.8889 25.958C67.4556 26.4087 66.9702 26.816 66.4329 27.18C65.8956 27.5267 65.3409 27.8647 64.7689 28.194C63.8676 28.6793 63.1396 29.104 62.5849 29.468C62.0302 29.832 61.5882 30.17 61.2589 30.482C60.9469 30.794 60.7042 31.106 60.5309 31.418C60.3749 31.7127 60.2362 32.0247 60.1149 32.354H69.3189V35.5H55.9029Z" fill="#BFBFBF"></path><path d="M31.7988 49.94H28.8588V57.5H27.7788V49.94H24.8388V48.98H31.7988V49.94ZM36.224 57.56C35.624 57.56 35.08 57.44 34.592 57.2C34.104 56.96 33.68 56.636 33.32 56.228C32.968 55.812 32.696 55.348 32.504 54.836C32.312 54.316 32.216 53.784 32.216 53.24C32.216 52.672 32.316 52.132 32.516 51.62C32.724 51.1 33.008 50.64 33.368 50.24C33.736 49.832 34.164 49.512 34.652 49.28C35.14 49.04 35.672 48.92 36.248 48.92C36.848 48.92 37.392 49.044 37.88 49.292C38.368 49.54 38.788 49.872 39.14 50.288C39.492 50.704 39.764 51.168 39.956 51.68C40.148 52.192 40.244 52.716 40.244 53.252C40.244 53.82 40.144 54.364 39.944 54.884C39.744 55.396 39.46 55.856 39.092 56.264C38.732 56.664 38.308 56.98 37.82 57.212C37.332 57.444 36.8 57.56 36.224 57.56ZM33.308 53.24C33.308 53.672 33.376 54.092 33.512 54.5C33.656 54.9 33.856 55.256 34.112 55.568C34.368 55.88 34.676 56.128 35.036 56.312C35.396 56.496 35.796 56.588 36.236 56.588C36.692 56.588 37.1 56.492 37.46 56.3C37.82 56.108 38.124 55.852 38.372 55.532C38.628 55.212 38.82 54.852 38.948 54.452C39.084 54.052 39.152 53.648 39.152 53.24C39.152 52.808 39.08 52.392 38.936 51.992C38.8 51.592 38.6 51.236 38.336 50.924C38.08 50.604 37.772 50.356 37.412 50.18C37.06 49.996 36.668 49.904 36.236 49.904C35.78 49.904 35.372 50 35.012 50.192C34.652 50.376 34.344 50.628 34.088 50.948C33.84 51.268 33.648 51.628 33.512 52.028C33.376 52.42 33.308 52.824 33.308 53.24ZM48.2846 55.304C48.2846 55.744 48.1726 56.128 47.9486 56.456C47.7246 56.784 47.4206 57.04 47.0366 57.224C46.6606 57.408 46.2446 57.5 45.7886 57.5H41.7446V48.98H45.9806C46.3806 48.98 46.7246 49.088 47.0126 49.304C47.3086 49.512 47.5326 49.784 47.6846 50.12C47.8446 50.448 47.9246 50.792 47.9246 51.152C47.9246 51.568 47.8166 51.96 47.6006 52.328C47.3926 52.688 47.0926 52.956 46.7006 53.132C47.1886 53.276 47.5726 53.544 47.8526 53.936C48.1406 54.32 48.2846 54.776 48.2846 55.304ZM47.1926 55.112C47.1926 54.848 47.1326 54.604 47.0126 54.38C46.9006 54.156 46.7446 53.976 46.5446 53.84C46.3526 53.704 46.1286 53.636 45.8726 53.636H42.8246V56.564H45.7886C46.0526 56.564 46.2886 56.496 46.4966 56.36C46.7126 56.224 46.8806 56.048 47.0006 55.832C47.1286 55.608 47.1926 55.368 47.1926 55.112ZM42.8246 49.916V52.76H45.5366C45.7926 52.76 46.0166 52.696 46.2086 52.568C46.4086 52.44 46.5646 52.268 46.6766 52.052C46.7966 51.836 46.8566 51.6 46.8566 51.344C46.8566 51.072 46.8006 50.832 46.6886 50.624C46.5846 50.408 46.4366 50.236 46.2446 50.108C46.0606 49.98 45.8486 49.916 45.6086 49.916H42.8246ZM52.2116 48.98H53.1236L56.6036 57.5H55.4516L54.4436 55.004H50.8676L49.8716 57.5H48.7196L52.2116 48.98ZM54.2036 54.164L52.6676 50.228L51.0836 54.164H54.2036ZM57.7407 57.5V48.98H61.2927C61.6687 48.98 62.0127 49.06 62.3247 49.22C62.6367 49.372 62.9087 49.58 63.1407 49.844C63.3727 50.1 63.5527 50.392 63.6807 50.72C63.8087 51.04 63.8727 51.368 63.8727 51.704C63.8727 52.168 63.7687 52.612 63.5607 53.036C63.3527 53.452 63.0607 53.792 62.6847 54.056C62.3087 54.312 61.8687 54.44 61.3647 54.44H58.8207V57.5H57.7407ZM58.8207 53.48H61.3047C61.6007 53.48 61.8567 53.4 62.0727 53.24C62.2967 53.08 62.4687 52.864 62.5887 52.592C62.7167 52.32 62.7807 52.024 62.7807 51.704C62.7807 51.368 62.7087 51.068 62.5647 50.804C62.4207 50.532 62.2327 50.32 62.0007 50.168C61.7687 50.016 61.5127 49.94 61.2327 49.94H58.8207V53.48ZM65.2173 57.5V48.98H66.2973V57.5H65.2173ZM74.8745 55.304C74.8745 55.744 74.7625 56.128 74.5385 56.456C74.3145 56.784 74.0105 57.04 73.6265 57.224C73.2505 57.408 72.8345 57.5 72.3785 57.5H68.3345V48.98H72.5705C72.9705 48.98 73.3145 49.088 73.6025 49.304C73.8985 49.512 74.1225 49.784 74.2745 50.12C74.4345 50.448 74.5145 50.792 74.5145 51.152C74.5145 51.568 74.4065 51.96 74.1905 52.328C73.9825 52.688 73.6825 52.956 73.2905 53.132C73.7785 53.276 74.1625 53.544 74.4425 53.936C74.7305 54.32 74.8745 54.776 74.8745 55.304ZM73.7825 55.112C73.7825 54.848 73.7225 54.604 73.6025 54.38C73.4905 54.156 73.3345 53.976 73.1345 53.84C72.9425 53.704 72.7185 53.636 72.4625 53.636H69.4145V56.564H72.3785C72.6425 56.564 72.8785 56.496 73.0865 56.36C73.3025 56.224 73.4705 56.048 73.5905 55.832C73.7185 55.608 73.7825 55.368 73.7825 55.112ZM69.4145 49.916V52.76H72.1265C72.3825 52.76 72.6065 52.696 72.7985 52.568C72.9985 52.44 73.1545 52.268 73.2665 52.052C73.3865 51.836 73.4465 51.6 73.4465 51.344C73.4465 51.072 73.3905 50.832 73.2785 50.624C73.1745 50.408 73.0265 50.236 72.8345 50.108C72.6505 49.98 72.4385 49.916 72.1985 49.916H69.4145Z" fill="#BFBFBF"></path></svg> 