<?xml version="1.0" encoding="UTF-8"?> <svg xmlns="http://www.w3.org/2000/svg" width="341" height="501" viewBox="0 0 341 501" fill="none"><path fill-rule="evenodd" clip-rule="evenodd" d="M340.014 294.048L340.014 100.173C340.014 98.5414 339.118 97.1084 337.646 96.4066C326.291 90.9947 275.073 68.2301 204.97 62.0769C204.97 101.133 199.96 195.582 179.921 260.926C176.533 271.976 172.826 283.088 168.943 294.048H162.496V307.117H164.207C146.147 355.881 125.641 399.821 115.666 419.344C134.404 426.082 151.046 431.022 160.858 433.77C166.918 435.468 173.3 435.424 179.335 433.641C196.373 428.608 234.076 416.635 267.047 400.327C307.63 380.254 340.014 348.535 340.014 334.983L340.014 307.117H304.349L291.726 343.044C290.785 345.721 288.225 347.485 285.389 347.41C282.553 347.336 280.089 345.44 279.291 342.717L261.123 280.783L253.626 302.698C252.722 305.341 250.237 307.117 247.443 307.117H238.845L232.841 322.554C231.818 325.185 229.221 326.862 226.402 326.711C223.583 326.56 221.18 324.616 220.443 321.891L214.51 299.937L213.17 303.118C212.15 305.541 209.777 307.117 207.148 307.117H164.207C165.808 302.794 167.39 298.433 168.943 294.048H202.809L209.838 277.354C210.921 274.783 213.516 273.183 216.3 273.371C219.083 273.558 221.441 275.492 222.169 278.185L227.87 299.28L228.285 298.214C229.261 295.702 231.68 294.048 234.375 294.048H242.773L255.419 257.083C256.34 254.389 258.9 252.602 261.746 252.665C264.592 252.728 267.07 254.627 267.872 257.359L286.121 319.572L293.554 298.416C294.473 295.799 296.945 294.048 299.719 294.048H340.014Z" fill="url(#paint0_radial_237_80)"></path><path d="M172.298 9.15527e-05C146.16 9.15527e-05 125.105 37.0283 117.845 55.5425C143.982 19.6033 160.318 9.80169 175.565 13.0689C190.812 16.3361 196.257 45.7409 194.079 95.8379C191.901 145.935 172.298 227.615 142.893 316.918C113.488 406.222 66.6583 470.477 53.5895 477.011C40.5208 483.546 28.541 479.189 19.8285 455.23C12.8585 436.062 11.8422 390.612 12.2053 370.283C-9.5763 461.764 15.9081 496.397 35.0757 499.882C59.0351 504.238 85.1727 487.902 116.756 435.627C148.339 383.351 173.387 326.72 194.079 248.307C214.772 169.894 216.95 108.907 214.772 72.9675C212.593 37.0283 204.97 9.15527e-05 172.298 9.15527e-05Z" fill="#B3E06D"></path><path fill-rule="evenodd" clip-rule="evenodd" d="M2.5658 96.8694C15.6625 90.6241 82.4312 60.9878 170.12 60.9878C173.417 60.9878 176.685 61.0297 179.921 61.1107C176.654 114.352 166.853 178.607 146.16 252.663C125.468 326.72 111.31 359.392 86.2616 408.25C80.758 405.882 75.2779 403.388 69.9256 400.777C24.44 378.588 0.225342 351.007 0.225342 335.433V100.614C0.225342 98.9827 1.09349 97.5715 2.5658 96.8694ZM101.509 189.498V163.36H60.124V189.498H33.9864V230.882H60.124V257.02H101.509V230.882H127.646V189.498H101.509ZM148.338 155.737C148.338 164.157 141.512 170.983 133.091 170.983C124.671 170.983 117.845 164.157 117.845 155.737C117.845 147.316 124.671 140.49 133.091 140.49C141.512 140.49 148.338 147.316 148.338 155.737ZM106.954 131.777C112.969 131.777 117.845 126.901 117.845 120.886C117.845 114.872 112.969 109.996 106.954 109.996C100.939 109.996 96.0632 114.872 96.0632 120.886C96.0632 126.901 100.939 131.777 106.954 131.777Z" fill="url(#paint1_radial_237_80)"></path><defs><radialGradient id="paint0_radial_237_80" cx="0" cy="0" r="1" gradientUnits="userSpaceOnUse" gradientTransform="translate(250.711 355.036) rotate(-110.379) scale(261.422 156.359)"><stop stop-color="#5FB49D"></stop><stop offset="1" stop-color="#226F87"></stop></radialGradient><radialGradient id="paint1_radial_237_80" cx="0" cy="0" r="1" gradientUnits="userSpaceOnUse" gradientTransform="translate(56.8568 124.154) rotate(83.3313) scale(286.032 220.034)"><stop stop-color="#5FB49D"></stop><stop offset="1" stop-color="#226F87"></stop></radialGradient></defs></svg> 