<?xml version="1.0" encoding="UTF-8"?> <svg xmlns="http://www.w3.org/2000/svg" width="14" height="14" viewBox="0 0 14 14" fill="none"><path d="M2.79597 12.8888C3.40397 13.4044 4.12401 13.7669 4.89708 13.9465C4.97106 13.971 5.02083 13.873 4.97106 13.824C3.3152 12.2245 4.22506 10.4934 4.89708 9.71289C5.3762 9.15569 6.0586 8.238 6.00882 7.00741C6.00882 6.88421 6.13327 6.78551 6.23144 6.85971C7.17103 7.35181 7.81332 8.4347 7.98617 9.32019C8.25857 9.05 8.35744 8.6314 8.35744 8.2625C8.35744 8.1393 8.50539 8.0406 8.62915 8.1393C9.51896 8.9513 11.0511 11.7072 8.57937 13.8723C8.53028 13.922 8.57937 14.0207 8.62915 13.9962C9.37862 13.7972 10.0834 13.4546 10.7054 12.9868C14.734 9.83679 12.1137 4.25083 10.4081 2.40565C10.1861 2.18375 9.79067 2.33145 9.79067 2.65135C9.76578 3.31634 9.56805 4.05414 9.04951 4.54623C8.65404 2.87325 7.33627 0.972761 5.45779 0.0375686C5.21096 -0.0856304 4.91436 0.111068 4.93925 0.381966C4.98765 2.67095 3.51293 4.12833 2.22766 6.02322C1.09033 7.72071 0.349174 10.8462 2.79597 12.8888Z" fill="#F55D48"></path></svg> 