<?xml version="1.0" encoding="UTF-8"?> <svg xmlns="http://www.w3.org/2000/svg" width="40" height="40" viewBox="0 0 40 40" fill="none"><rect x="0.5" y="0.5" width="39" height="39" rx="19.5" fill="white"></rect><rect x="0.5" y="0.5" width="39" height="39" rx="19.5" stroke="#F55D48"></rect><path d="M15.796 25.8888C16.404 26.4044 17.124 26.7669 17.8971 26.9465C17.9711 26.971 18.0208 26.873 17.9711 26.824C16.3152 25.2245 17.2251 23.4934 17.8971 22.7129C18.3762 22.1557 19.0586 21.238 19.0088 20.0074C19.0088 19.8842 19.1333 19.7855 19.2314 19.8597C20.171 20.3518 20.8133 21.4347 20.9862 22.3202C21.2586 22.05 21.3574 21.6314 21.3574 21.2625C21.3574 21.1393 21.5054 21.0406 21.6292 21.1393C22.519 21.9513 24.0511 24.7072 21.5794 26.8723C21.5303 26.922 21.5794 27.0207 21.6292 26.9962C22.3786 26.7972 23.0834 26.4546 23.7054 25.9868C27.734 22.8368 25.1137 17.2508 23.4081 15.4056C23.1861 15.1838 22.7907 15.3314 22.7907 15.6513C22.7658 16.3163 22.568 17.0541 22.0495 17.5462C21.654 15.8732 20.3363 13.9728 18.4578 13.0376C18.211 12.9144 17.9144 13.1111 17.9393 13.382C17.9876 15.6709 16.5129 17.1283 15.2277 19.0232C14.0903 20.7207 13.3492 23.8462 15.796 25.8888Z" fill="#F55D48"></path></svg> 