<?xml version="1.0" encoding="UTF-8"?> <svg xmlns="http://www.w3.org/2000/svg" width="24" height="24" viewBox="0 0 24 24" fill="none"><circle cx="12" cy="12" r="12" fill="#B3E06D"></circle><path d="M17 11.3889C17 14.4867 13.8274 17.2319 12.5366 18.2207C12.2161 18.4662 11.7839 18.4662 11.4634 18.2207C10.1726 17.2319 7 14.4867 7 11.3889C7 10.0628 7.52678 8.79106 8.46447 7.85338C9.40215 6.9157 10.6739 6.38892 12 6.38892C13.3261 6.38892 14.5979 6.9157 15.5355 7.85338C16.4732 8.79106 17 10.0628 17 11.3889Z" fill="white"></path><path d="M11.9999 13.0555C12.9204 13.0555 13.6666 12.3093 13.6666 11.3888C13.6666 10.4684 12.9204 9.72217 11.9999 9.72217C11.0794 9.72217 10.3333 10.4684 10.3333 11.3888C10.3333 12.3093 11.0794 13.0555 11.9999 13.0555Z" stroke="#B3E06D" stroke-width="1.5" stroke-linecap="round" stroke-linejoin="round"></path></svg> 