<?xml version="1.0" encoding="UTF-8"?> <svg xmlns="http://www.w3.org/2000/svg" width="310" height="85" viewBox="0 0 310 85" fill="none"><path d="M71.3245 71.643C71.229 71.643 71.1335 71.6366 71.0379 71.6238C70.9424 71.6111 70.8373 71.592 70.7227 71.5665L70.7895 70.7163C70.8914 70.7417 70.9933 70.7545 71.0952 70.7545C71.3755 70.7545 71.5984 70.643 71.764 70.4201C71.9296 70.1972 72.0506 69.8597 72.127 69.4075C72.2098 68.9553 72.2639 68.3852 72.2894 67.6974L72.3945 64.8792H77.1043V71.5665H76.1681V65.4619L76.3974 65.7103H73.0059L73.2161 65.4524L73.1397 67.6687C73.1206 68.3311 73.076 68.9107 73.0059 69.4075C72.9359 69.9042 72.8308 70.3182 72.6907 70.6494C72.5505 70.9806 72.369 71.229 72.1461 71.3946C71.9296 71.5602 71.6557 71.643 71.3245 71.643Z" fill="#2A798A"></path><path d="M80.7445 71.5665L83.7729 64.8792H84.7187L87.7567 71.5665H86.7536L84.05 65.4141H84.4321L81.7285 71.5665H80.7445ZM82.0342 69.8947L82.2922 69.1304H86.0562L86.3332 69.8947H82.0342Z" fill="#2A798A"></path><path d="M91.3947 71.5665V64.8792H97.1554V71.5665H96.2192V65.4619L96.4485 65.7103H92.1017L92.3405 65.4619V71.5665H91.3947Z" fill="#2A798A"></path><path d="M100.798 71.5665L103.826 64.8792H104.772L107.81 71.5665H106.807L104.103 65.4141H104.486L101.782 71.5665H100.798ZM102.088 69.8947L102.346 69.1304H106.11L106.387 69.8947H102.088Z" fill="#2A798A"></path><path d="M111.448 71.5665V64.8792H114.056C114.642 64.8792 115.142 64.9715 115.556 65.1562C115.97 65.3409 116.289 65.6084 116.512 65.9587C116.734 66.309 116.846 66.7261 116.846 67.2102C116.846 67.6942 116.734 68.1114 116.512 68.4617C116.289 68.8056 115.97 69.0731 115.556 69.2642C115.142 69.4489 114.642 69.5412 114.056 69.5412H111.974L112.404 69.0922V71.5665H111.448ZM112.404 69.1877L111.974 68.7101H114.028C114.639 68.7101 115.101 68.5795 115.413 68.3184C115.731 68.0573 115.891 67.6879 115.891 67.2102C115.891 66.7325 115.731 66.3631 115.413 66.102C115.101 65.8409 114.639 65.7103 114.028 65.7103H111.974L112.404 65.2326V69.1877Z" fill="#2A798A"></path><path d="M123.761 71.643C123.252 71.643 122.777 71.557 122.338 71.385C121.905 71.213 121.529 70.9742 121.211 70.6685C120.892 70.3564 120.644 69.9934 120.465 69.5794C120.287 69.1654 120.198 68.7132 120.198 68.2228C120.198 67.7324 120.287 67.2802 120.465 66.8663C120.644 66.4523 120.892 66.0924 121.211 65.7867C121.529 65.4747 121.905 65.2326 122.338 65.0607C122.771 64.8887 123.245 64.8027 123.761 64.8027C124.271 64.8027 124.739 64.8887 125.166 65.0607C125.599 65.2263 125.974 65.4651 126.293 65.7772C126.618 66.0829 126.866 66.4427 127.038 66.8567C127.216 67.2707 127.306 67.7261 127.306 68.2228C127.306 68.7196 127.216 69.175 127.038 69.589C126.866 70.003 126.618 70.366 126.293 70.6781C125.974 70.9838 125.599 71.2226 125.166 71.3946C124.739 71.5602 124.271 71.643 123.761 71.643ZM123.761 70.7927C124.131 70.7927 124.471 70.729 124.783 70.6016C125.102 70.4743 125.376 70.2959 125.605 70.0666C125.841 69.831 126.022 69.5571 126.15 69.2451C126.283 68.933 126.35 68.5922 126.35 68.2228C126.35 67.8534 126.283 67.5127 126.15 67.2006C126.022 66.8886 125.841 66.6179 125.605 66.3886C125.376 66.1529 125.102 65.9714 124.783 65.8441C124.471 65.7167 124.131 65.653 123.761 65.653C123.386 65.653 123.038 65.7167 122.72 65.8441C122.408 65.9714 122.134 66.1529 121.898 66.3886C121.663 66.6179 121.478 66.8886 121.344 67.2006C121.217 67.5127 121.153 67.8534 121.153 68.2228C121.153 68.5922 121.217 68.933 121.344 69.2451C121.478 69.5571 121.663 69.831 121.898 70.0666C122.134 70.2959 122.408 70.4743 122.72 70.6016C123.038 70.729 123.386 70.7927 123.761 70.7927Z" fill="#2A798A"></path><path d="M134.324 71.643C133.815 71.643 133.343 71.5602 132.91 71.3946C132.483 71.2226 132.111 70.9838 131.792 70.6781C131.48 70.366 131.235 70.003 131.057 69.589C130.878 69.175 130.789 68.7196 130.789 68.2228C130.789 67.7261 130.878 67.2707 131.057 66.8567C131.235 66.4427 131.483 66.0829 131.802 65.7772C132.12 65.4651 132.493 65.2263 132.92 65.0607C133.353 64.8887 133.824 64.8027 134.334 64.8027C134.849 64.8027 135.324 64.8919 135.757 65.0702C136.196 65.2422 136.569 65.5001 136.875 65.8441L136.254 66.4459C135.999 66.1784 135.712 65.981 135.394 65.8536C135.076 65.7199 134.735 65.653 134.372 65.653C133.996 65.653 133.646 65.7167 133.321 65.8441C133.002 65.9714 132.725 66.1498 132.49 66.379C132.254 66.6083 132.069 66.8822 131.936 67.2006C131.808 67.5127 131.745 67.8534 131.745 68.2228C131.745 68.5922 131.808 68.9362 131.936 69.2546C132.069 69.5667 132.254 69.8374 132.49 70.0666C132.725 70.2959 133.002 70.4743 133.321 70.6016C133.646 70.729 133.996 70.7927 134.372 70.7927C134.735 70.7927 135.076 70.729 135.394 70.6016C135.712 70.4679 135.999 70.2641 136.254 69.9902L136.875 70.5921C136.569 70.936 136.196 71.1971 135.757 71.3755C135.324 71.5538 134.846 71.643 134.324 71.643Z" fill="#2A798A"></path><path d="M145.174 71.5665L142.748 68.2706L143.522 67.7929L146.264 71.5665H145.174ZM140.675 71.5665V64.8792H141.611V71.5665H140.675ZM141.324 68.6241V67.7834H143.493V68.6241H141.324ZM143.608 68.3279L142.729 68.1942L145.127 64.8792H146.149L143.608 68.3279Z" fill="#2A798A"></path><path d="M152.717 71.643C152.208 71.643 151.733 71.557 151.294 71.385C150.861 71.213 150.485 70.9742 150.167 70.6685C149.848 70.3564 149.6 69.9934 149.421 69.5794C149.243 69.1654 149.154 68.7132 149.154 68.2228C149.154 67.7324 149.243 67.2802 149.421 66.8663C149.6 66.4523 149.848 66.0924 150.167 65.7867C150.485 65.4747 150.861 65.2326 151.294 65.0607C151.727 64.8887 152.201 64.8027 152.717 64.8027C153.227 64.8027 153.695 64.8887 154.122 65.0607C154.555 65.2263 154.931 65.4651 155.249 65.7772C155.574 66.0829 155.822 66.4427 155.994 66.8567C156.172 67.2707 156.262 67.7261 156.262 68.2228C156.262 68.7196 156.172 69.175 155.994 69.589C155.822 70.003 155.574 70.366 155.249 70.6781C154.931 70.9838 154.555 71.2226 154.122 71.3946C153.695 71.5602 153.227 71.643 152.717 71.643ZM152.717 70.7927C153.087 70.7927 153.427 70.729 153.74 70.6016C154.058 70.4743 154.332 70.2959 154.561 70.0666C154.797 69.831 154.978 69.5571 155.106 69.2451C155.239 68.933 155.306 68.5922 155.306 68.2228C155.306 67.8534 155.239 67.5127 155.106 67.2006C154.978 66.8886 154.797 66.6179 154.561 66.3886C154.332 66.1529 154.058 65.9714 153.74 65.8441C153.427 65.7167 153.087 65.653 152.717 65.653C152.342 65.653 151.994 65.7167 151.676 65.8441C151.364 65.9714 151.09 66.1529 150.854 66.3886C150.619 66.6179 150.434 66.8886 150.3 67.2006C150.173 67.5127 150.109 67.8534 150.109 68.2228C150.109 68.5922 150.173 68.933 150.3 69.2451C150.434 69.5571 150.619 69.831 150.854 70.0666C151.09 70.2959 151.364 70.4743 151.676 70.6016C151.994 70.729 152.342 70.7927 152.717 70.7927Z" fill="#2A798A"></path><path d="M160.29 71.5665V64.8792H166.051V71.5665H165.114V65.4619L165.344 65.7103H160.997L161.236 65.4619V71.5665H160.29Z" fill="#2A798A"></path><path d="M170.62 71.5665V64.8792H171.566V71.5665H170.62Z" fill="#2A798A"></path><path d="M180.114 68.8534C179.739 69.0126 179.372 69.1336 179.016 69.2164C178.666 69.2928 178.325 69.331 177.994 69.331C177.178 69.331 176.545 69.1336 176.092 68.7387C175.647 68.3439 175.424 67.7802 175.424 67.0478V64.8792H176.36V66.9427C176.36 67.4395 176.513 67.8216 176.819 68.0891C177.124 68.3566 177.551 68.4903 178.099 68.4903C178.424 68.4903 178.755 68.4489 179.092 68.3661C179.436 68.2833 179.771 68.1623 180.095 68.0031L180.114 68.8534ZM179.952 71.5665V64.8792H180.898V71.5665H179.952Z" fill="#2A798A"></path><path d="M190.263 64.8792H191.219V71.5665H190.263V64.8792ZM186.423 71.5665H185.467V64.8792H186.423V71.5665ZM190.349 68.5859H186.327V67.7547H190.349V68.5859Z" fill="#2A798A"></path><path d="M196.657 67.7643H200.097V68.5763H196.657V67.7643ZM196.743 70.7354H200.641V71.5665H195.788V64.8792H200.508V65.7103H196.743V70.7354Z" fill="#2A798A"></path><path d="M212.684 71.643C212.175 71.643 211.7 71.557 211.261 71.385C210.828 71.213 210.452 70.9742 210.133 70.6685C209.815 70.3564 209.567 69.9934 209.388 69.5794C209.21 69.1654 209.121 68.7132 209.121 68.2228C209.121 67.7324 209.21 67.2802 209.388 66.8663C209.567 66.4523 209.815 66.0924 210.133 65.7867C210.452 65.4747 210.828 65.2326 211.261 65.0607C211.694 64.8887 212.168 64.8027 212.684 64.8027C213.194 64.8027 213.662 64.8887 214.089 65.0607C214.522 65.2263 214.897 65.4651 215.216 65.7772C215.541 66.0829 215.789 66.4427 215.961 66.8567C216.139 67.2707 216.228 67.7261 216.228 68.2228C216.228 68.7196 216.139 69.175 215.961 69.589C215.789 70.003 215.541 70.366 215.216 70.6781C214.897 70.9838 214.522 71.2226 214.089 71.3946C213.662 71.5602 213.194 71.643 212.684 71.643ZM212.684 70.7927C213.054 70.7927 213.394 70.729 213.706 70.6016C214.025 70.4743 214.299 70.2959 214.528 70.0666C214.764 69.831 214.945 69.5571 215.073 69.2451C215.206 68.933 215.273 68.5922 215.273 68.2228C215.273 67.8534 215.206 67.5127 215.073 67.2006C214.945 66.8886 214.764 66.6179 214.528 66.3886C214.299 66.1529 214.025 65.9714 213.706 65.8441C213.394 65.7167 213.054 65.653 212.684 65.653C212.308 65.653 211.961 65.7167 211.643 65.8441C211.331 65.9714 211.057 66.1529 210.821 66.3886C210.586 66.6179 210.401 66.8886 210.267 67.2006C210.14 67.5127 210.076 67.8534 210.076 68.2228C210.076 68.5922 210.14 68.933 210.267 69.2451C210.401 69.5571 210.586 69.831 210.821 70.0666C211.057 70.2959 211.331 70.4743 211.643 70.6016C211.961 70.729 212.308 70.7927 212.684 70.7927Z" fill="#2A798A"></path><path d="M220.257 71.5665V64.8792H225.301V65.6912H221.202V67.6019H223.285C224.081 67.6019 224.686 67.7675 225.1 68.0986C225.514 68.4298 225.721 68.9107 225.721 69.5412C225.721 70.1908 225.495 70.6908 225.043 71.0411C224.597 71.3914 223.957 71.5665 223.123 71.5665H220.257ZM221.202 70.8118H223.085C223.639 70.8118 224.056 70.7067 224.336 70.4965C224.623 70.2864 224.766 69.9743 224.766 69.5603C224.766 68.7578 224.205 68.3566 223.085 68.3566H221.202V70.8118Z" fill="#2A798A"></path><path d="M229.245 71.643C229.15 71.643 229.054 71.6366 228.959 71.6238C228.863 71.6111 228.758 71.592 228.643 71.5665L228.71 70.7163C228.812 70.7417 228.914 70.7545 229.016 70.7545C229.296 70.7545 229.519 70.643 229.685 70.4201C229.85 70.1972 229.971 69.8597 230.048 69.4075C230.13 68.9553 230.185 68.3852 230.21 67.6974L230.315 64.8792H235.025V71.5665H234.089V65.4619L234.318 65.7103H230.927L231.137 65.4524L231.06 67.6687C231.041 68.3311 230.997 68.9107 230.927 69.4075C230.857 69.9042 230.751 70.3182 230.611 70.6494C230.471 70.9806 230.29 71.229 230.067 71.3946C229.85 71.5602 229.576 71.643 229.245 71.643Z" fill="#2A798A"></path><path d="M238.665 71.5665L241.694 64.8792H242.639L245.677 71.5665H244.674L241.971 65.4141H242.353L239.649 71.5665H238.665ZM239.955 69.8947L240.213 69.1304H243.977L244.254 69.8947H239.955Z" fill="#2A798A"></path><path d="M253.758 71.1175V65.7103H250.825L250.777 67.1147C250.758 67.586 250.726 68.0381 250.682 68.4712C250.643 68.9043 250.586 69.296 250.51 69.6463C250.433 69.9902 250.325 70.2736 250.185 70.4965C250.051 70.7195 249.879 70.8564 249.669 70.9073L248.637 70.7354C248.885 70.7545 249.089 70.6717 249.249 70.487C249.414 70.2959 249.541 70.0316 249.631 69.6941C249.726 69.3501 249.796 68.9521 249.841 68.4999C249.885 68.0413 249.917 67.5509 249.936 67.0287L250.003 64.8792H254.704V71.1175H253.758ZM248.398 73.0282L248.408 70.7354H255.688V73.0282H254.799V71.5665H249.296L249.287 73.0282H248.398Z" fill="#2A798A"></path><path d="M264.273 64.8792H265.229V71.5665H264.273V64.8792ZM260.433 71.5665H259.477V64.8792H260.433V71.5665ZM264.359 68.5859H260.337V67.7547H264.359V68.5859Z" fill="#2A798A"></path><path d="M268.871 71.5665L271.9 64.8792H272.846L275.884 71.5665H274.88L272.177 65.4141H272.559L269.855 71.5665H268.871ZM270.161 69.8947L270.419 69.1304H274.183L274.46 69.8947H270.161Z" fill="#2A798A"></path><path d="M284.317 64.8792H285.273V71.5665H284.317V64.8792ZM280.477 71.5665H279.522V64.8792H280.477V71.5665ZM284.403 68.5859H280.381V67.7547H284.403V68.5859Z" fill="#2A798A"></path><path d="M294.638 64.8792H295.593V71.5665H294.638V64.8792ZM290.798 71.5665H289.842V64.8792H290.798V71.5665ZM294.724 68.5859H290.702V67.7547H294.724V68.5859Z" fill="#2A798A"></path><path d="M304.128 71.5665V69.3884L304.376 69.6176H302.284C301.742 69.6176 301.274 69.5253 300.879 69.3406C300.491 69.1559 300.192 68.8916 299.981 68.5477C299.778 68.1974 299.676 67.777 299.676 67.2866C299.676 66.7771 299.787 66.344 300.01 65.9874C300.233 65.6243 300.548 65.3505 300.956 65.1658C301.363 64.9747 301.838 64.8792 302.379 64.8792H305.064V71.5665H304.128ZM299.676 71.5665L301.328 69.1973H302.303L300.688 71.5665H299.676ZM304.128 69.0826V65.4333L304.376 65.7103H302.417C301.844 65.7103 301.405 65.8441 301.099 66.1115C300.793 66.3727 300.641 66.7612 300.641 67.2771C300.641 67.7675 300.784 68.1464 301.07 68.4139C301.363 68.6814 301.793 68.8152 302.36 68.8152H304.376L304.128 69.0826Z" fill="#2A798A"></path><path d="M73.5889 50.5578V16.7602H80.6738V45.0998H97.3102V50.5578H73.5889Z" fill="#2A798A"></path><path d="M116.09 51.0826C105.139 51.0826 99.6632 45.3272 99.6632 33.8164C99.6632 27.6237 101.045 23.1453 103.809 20.3813C106.573 17.6173 110.667 16.2354 116.09 16.2354C121.513 16.2354 125.606 17.6173 128.37 20.3813C131.134 23.1453 132.516 27.6237 132.516 33.8164C132.516 45.3272 127.041 51.0826 116.09 51.0826ZM116.09 45.0473C119.273 45.0473 121.6 44.1376 123.07 42.3183C124.574 40.464 125.326 37.63 125.326 33.8164C125.326 29.583 124.574 26.609 123.07 24.8947C121.6 23.1453 119.273 22.2706 116.09 22.2706C112.906 22.2706 110.562 23.1453 109.057 24.8947C107.588 26.609 106.853 29.583 106.853 33.8164C106.853 37.63 107.588 40.464 109.057 42.3183C110.562 44.1376 112.906 45.0473 116.09 45.0473Z" fill="#2A798A"></path><path d="M137.984 50.5578V16.7602H145.069V31.0874L158.084 16.7602H166.219L153.991 30.4576L166.849 50.5578H159.292L149.583 34.971L145.069 39.8517V50.5578H137.984Z" fill="#2A798A"></path><path d="M172.283 50.5578V16.7602H196.529V22.2706H179.368V30.93H194.588V36.388H179.368V45.0998H196.529V50.5578H172.283Z" fill="#2A798A"></path><path d="M209.127 50.5578V16.7602H216.265L226.184 37.0702L236.102 16.7602H243.187V50.5578H236.102V28.5683L228.23 44.7324H224.137L216.212 28.5683V50.5578H209.127Z" fill="#2A798A"></path><path d="M249.679 50.5578V16.7602H273.925V22.2706H256.764V30.93H271.983V36.388H256.764V45.0998H273.925V50.5578H249.679Z" fill="#2A798A"></path><path d="M279.365 50.5578V16.7602H293.535C298.608 16.7602 302.422 18.0722 304.976 20.6962C307.565 23.2853 308.86 27.6587 308.86 33.8164C308.86 39.6243 307.583 43.8752 305.029 46.5692C302.509 49.2282 298.678 50.5578 293.535 50.5578H279.365ZM286.45 45.0998H292.538C294.532 45.0998 296.212 44.8024 297.576 44.2076C298.941 43.5778 299.955 42.4582 300.62 40.8488C301.32 39.2044 301.67 36.8603 301.67 33.8164C301.67 30.7725 301.355 28.4459 300.725 26.8365C300.095 25.2271 299.116 24.125 297.786 23.5302C296.457 22.9354 294.707 22.638 292.538 22.638H286.45V45.0998Z" fill="#2A798A"></path><path fill-rule="evenodd" clip-rule="evenodd" d="M57.6184 49.8618V16.9863C57.6184 16.7097 57.4665 16.4667 57.2168 16.3477C55.2914 15.43 46.6062 11.5698 34.7186 10.5264C34.7186 17.1493 33.8691 33.1652 30.4711 44.2458C29.8965 46.1194 29.268 48.0034 28.6097 49.8618H27.5166V52.0779H27.8065C24.744 60.3472 21.2666 67.7984 19.5752 71.109C22.7525 72.2515 25.5747 73.0892 27.2385 73.5553C28.266 73.8431 29.3482 73.8357 30.3716 73.5334C33.2609 72.6798 39.6543 70.6496 45.2451 67.8842C52.1269 64.4803 57.6184 59.1018 57.6184 56.8037V52.0779H57.6187V49.8618H57.6184ZM57.6184 49.8618H50.7857C50.3154 49.8618 49.8962 50.1588 49.7403 50.6025L48.4799 54.1899L45.3853 43.6403C45.2495 43.177 44.8293 42.8551 44.3466 42.8444C43.864 42.8337 43.4299 43.1367 43.2737 43.5935L41.1293 49.8618H39.7052C39.2482 49.8618 38.8381 50.1423 38.6725 50.5682L38.6022 50.749L37.6354 47.1719C37.512 46.7152 37.1122 46.3873 36.6402 46.3555C36.1682 46.3237 35.7281 46.595 35.5445 47.031L34.3526 49.8618H28.6097C28.3462 50.6054 28.078 51.3449 27.8065 52.0779H35.0883C35.5341 52.0779 35.9365 51.8107 36.1095 51.3998L36.3367 50.8604L37.3428 54.5831C37.4677 55.0452 37.8752 55.3749 38.3533 55.4005C38.8313 55.4261 39.2717 55.1418 39.4452 54.6956L40.4632 52.0779H41.9213C42.395 52.0779 42.8164 51.7767 42.9697 51.3285L44.241 47.6124L47.3217 58.1147C47.4571 58.5764 47.8749 58.8979 48.3558 58.9105C48.8368 58.9232 49.2709 58.624 49.4304 58.1701L51.5709 52.0779H57.6184V49.8618Z" fill="url(#paint0_radial_65_637)"></path><path d="M29.1784 0C24.7462 0 21.1758 6.27897 19.9447 9.41846C24.3768 3.32416 27.147 1.66208 29.7324 2.21611C32.3179 2.77013 33.2413 7.75638 32.8719 16.2515C32.5026 24.7465 29.1784 38.5972 24.1922 53.7406C19.2059 68.884 11.2649 79.7799 9.04875 80.8879C6.83265 81.996 4.80122 81.2573 3.32381 77.1944C2.14189 73.9441 1.96955 66.237 2.03113 62.7897C-1.66243 78.3025 2.65902 84.1751 5.90931 84.7661C9.97218 85.5048 14.4044 82.7347 19.76 73.8702C25.1156 65.0058 29.3631 55.4027 32.8719 42.106C36.3808 28.8094 36.7501 18.4676 36.3808 12.3733C36.0114 6.27897 34.7187 0 29.1784 0Z" fill="#B3E06D"></path><path fill-rule="evenodd" clip-rule="evenodd" d="M0.396877 16.4263C2.61772 15.3673 13.9399 10.3418 28.8094 10.3418C29.3685 10.3418 29.9227 10.3489 30.4715 10.3626C29.9174 19.3909 28.2554 30.2868 24.7465 42.8447C21.2377 55.4026 18.8369 60.9429 14.5894 69.2279C13.6561 68.8263 12.7268 68.4033 11.8192 67.9606C4.10614 64.198 0 59.5211 0 56.8801V17.0613C0 16.7847 0.147214 16.5454 0.396877 16.4263ZM17.1745 32.1334V27.7012H10.1568V32.1334H5.72461V39.1511H10.1568V43.5833H17.1745V39.1511L21.6067 39.1511V32.1334H17.1745ZM25.1161 26.4091C25.1161 27.837 23.9585 28.9945 22.5306 28.9945C21.1027 28.9945 19.9451 27.837 19.9451 26.4091C19.9451 24.9812 21.1027 23.8236 22.5306 23.8236C23.9585 23.8236 25.1161 24.9812 25.1161 26.4091ZM18.0977 22.3454C19.1177 22.3454 19.9445 21.5186 19.9445 20.4987C19.9445 19.4787 19.1177 18.6519 18.0977 18.6519C17.0778 18.6519 16.251 19.4787 16.251 20.4987C16.251 21.5186 17.0778 22.3454 18.0977 22.3454Z" fill="url(#paint1_radial_65_637)"></path><defs><radialGradient id="paint0_radial_65_637" cx="0" cy="0" r="1" gradientUnits="userSpaceOnUse" gradientTransform="translate(42.4752 60.2041) rotate(-110.379) scale(44.33 26.5144)"><stop stop-color="#5FB49D"></stop><stop offset="1" stop-color="#226F87"></stop></radialGradient><radialGradient id="paint1_radial_65_637" cx="0" cy="0" r="1" gradientUnits="userSpaceOnUse" gradientTransform="translate(9.60313 21.053) rotate(83.3313) scale(48.5031 37.3118)"><stop stop-color="#5FB49D"></stop><stop offset="1" stop-color="#226F87"></stop></radialGradient></defs></svg> 