<?xml version="1.0" encoding="UTF-8"?> <svg xmlns="http://www.w3.org/2000/svg" width="57" height="56" viewBox="0 0 57 56" fill="none"><path d="M28.8571 11.5734V44.6154M32.5651 14.5944C32.5651 14.5944 24.0083 13.4615 24.0083 18.3706C24.0083 23.2797 36.9386 20.6364 36.9386 27.4336C36.9386 34.2308 24.0083 28.5664 22.2969 34.2308C20.5856 39.8951 25 43.5 33.3257 42.9161M20.0151 12.8951V3C20.0151 1.89543 20.9105 1 22.0151 1H28.8571H35.6992C36.8037 1 37.6992 1.89543 37.6992 3V12.8951L46.4413 8.16025C47.3959 7.64328 48.5885 7.98209 49.1286 8.92368L55.7221 20.4173C56.2706 21.3734 55.9422 22.5929 54.9878 23.1443L46.256 28.1888L54.9782 33.2278C55.9363 33.7813 56.2629 35.0076 55.707 35.9643L49.1598 47.233C48.6058 48.1864 47.3847 48.5116 46.43 47.96L37.6992 42.9161V53C37.6992 54.1046 36.8037 55 35.6992 55H22.0151C20.9105 55 20.0151 54.1046 20.0151 53V42.9161L11.6433 47.9352C10.6995 48.501 9.47595 48.1981 8.90508 47.2574L2.08977 36.0266C1.49675 35.0494 1.84196 33.7748 2.84708 33.2304L11.4583 28.5664L2.65463 23.1625C1.73296 22.5968 1.42795 21.4009 1.96608 20.4628L8.58564 8.92368C9.1258 7.98209 10.3184 7.64328 11.2729 8.16025L20.0151 12.8951Z" stroke="#B3E06D" stroke-width="2" stroke-linecap="round" stroke-linejoin="round"></path></svg> 