<?xml version="1.0" encoding="UTF-8"?> <svg xmlns="http://www.w3.org/2000/svg" width="54" height="57" viewBox="0 0 54 57" fill="none"><path d="M32.8403 7.9602C32.1886 9.2969 31.823 10.7987 31.823 12.3858C31.823 17.9707 36.3505 22.4982 41.9354 22.4982C42.4147 22.4982 42.8863 22.4648 43.348 22.4003M32.8403 7.9602C34.4817 4.59327 37.9376 2.27344 41.9354 2.27344C47.5203 2.27344 52.0477 6.8009 52.0477 12.3858C52.0477 17.4913 48.2641 21.7131 43.348 22.4003M32.8403 7.9602C28.4455 6.98203 24.0827 4.85485 23.1262 1.66669C20.0927 7.7341 7.95783 11.5768 3.30597 7.7341C3.30597 7.7341 -0.941264 30.1835 2.09249 39.0824C4.66643 46.6325 18.0136 53.3091 22.0005 55.1596C22.7209 55.4939 23.5321 55.5048 24.2596 55.1861C28.3969 53.3737 42.4888 46.6691 43.3509 39.0824C43.7991 35.1386 43.6514 28.5334 43.348 22.4003M41.9354 7.7341V12.0824M41.9354 16.4307V12.0824M41.9354 12.0824H46.1825H37.4859M17.7231 31.3847L20.9077 34.9231L27.6308 25.5462M34 30.5001C34 36.8513 28.8513 42.0001 22.5 42.0001C16.1487 42.0001 11 36.8513 11 30.5001C11 24.1488 16.1487 19.0001 22.5 19.0001C28.8513 19.0001 34 24.1488 34 30.5001Z" stroke="#B3E06D" stroke-width="2" stroke-linecap="round" stroke-linejoin="round"></path></svg> 