<?xml version="1.0" encoding="UTF-8"?> <svg xmlns="http://www.w3.org/2000/svg" width="49" height="58" viewBox="0 0 49 58" fill="none"><path d="M24.1389 1V5.66668M24.1389 10.3334V5.66668M24.1389 5.66668H20.0555M24.1389 5.66668H28.4167M24.1389 29.7778V34.3472M24.1389 38.9166V34.3472M24.1389 34.3472H28.4167H24.2361H20.0555M34.25 34.25C34.25 39.8342 29.7231 44.3611 24.1389 44.3611C18.5547 44.3611 14.0278 39.8342 14.0278 34.25C14.0278 28.6658 18.5547 24.1389 24.1389 24.1389C29.7231 24.1389 34.25 28.6658 34.25 34.25ZM24.1389 19.4722C21.8055 14.4167 17.1389 10.7222 12.4722 10.7222C7.80555 10.7222 1 12.4722 1 22.3889C1 32.3056 10.3333 44.3611 24.1389 57C36.3889 46.3055 47.4722 31.9167 47.4722 22.3889C47.4722 12.8611 41.0555 10.7222 36.3889 10.7222C31.7222 10.7222 27.0555 14.4167 24.1389 19.4722Z" stroke="#B3E06D" stroke-width="2" stroke-linecap="round" stroke-linejoin="round"></path></svg> 