<?xml version="1.0" encoding="UTF-8"?> <svg xmlns="http://www.w3.org/2000/svg" width="49" height="55" viewBox="0 0 49 55" fill="none"><path d="M1 12.9885V46.4919C1 47.5965 1.89543 48.4919 3 48.4919H8.29353M1 12.9885L14.3418 1.33331M1 12.9885H12.3418C13.4464 12.9885 14.3418 12.0931 14.3418 10.9885V1.33331M14.3418 1.33331H37.7802C38.8848 1.33331 39.7802 2.22874 39.7802 3.33331V6.89193M9.00509 28.485H33.0204M33.0204 34.9402H9.00509M9.00509 41.754H33.0204M8.29353 48.4919H39.7802V6.89193M8.29353 48.4919V51.3333C8.29353 52.4379 9.18896 53.3333 10.2935 53.3333H45.6074C46.712 53.3333 47.6074 52.4379 47.6074 51.3333V8.89193C47.6074 7.78736 46.712 6.89193 45.6074 6.89193H39.7802M26.2605 12.9885V9.68504C26.2605 9.13275 26.7082 8.68504 27.2605 8.68504H30.5972C31.1495 8.68504 31.5972 9.13275 31.5972 9.68504V12.9885H34.6887C35.241 12.9885 35.6887 13.4362 35.6887 13.9885V16.8299C35.6887 17.3822 35.241 17.8299 34.6887 17.8299H31.5972V21.4919C31.5972 22.0442 31.1495 22.4919 30.5972 22.4919H27.2605C26.7082 22.4919 26.2605 22.0442 26.2605 21.4919V17.8299H22.8132C22.2609 17.8299 21.8132 17.3821 21.8132 16.8299V13.9885C21.8132 13.4362 22.2609 12.9885 22.8132 12.9885H26.2605Z" stroke="#B3E06D" stroke-width="2" stroke-linecap="round"></path></svg> 