<?xml version="1.0" encoding="UTF-8"?> <svg xmlns="http://www.w3.org/2000/svg" width="25" height="24" viewBox="0 0 25 24" fill="none"><circle cx="12.25" cy="12" r="12" fill="#B3E06D"></circle><path fill-rule="evenodd" clip-rule="evenodd" d="M7.33781 7.38477C6.99187 7.38477 6.71143 7.66521 6.71143 8.01115V15.5278C6.71143 15.8738 6.99187 16.1542 7.33781 16.1542H17.36C17.706 16.1542 17.9864 15.8738 17.9864 15.5278V8.01115C17.9864 7.66521 17.706 7.38477 17.36 7.38477H7.33781ZM8.51418 8.20814C8.24382 7.93778 7.80547 7.93778 7.53511 8.20814C7.26475 8.47851 7.26475 8.91685 7.53511 9.18721L10.9736 12.6257C11.7332 13.3853 12.9647 13.3853 13.7243 12.6257L17.1628 9.18721C17.4331 8.91685 17.4331 8.47851 17.1628 8.20814C16.8924 7.93778 16.4541 7.93778 16.1837 8.20814L12.7453 11.6466C12.5264 11.8655 12.1715 11.8655 11.9526 11.6466L8.51418 8.20814Z" fill="white"></path></svg> 