<?xml version="1.0" encoding="UTF-8"?> <svg xmlns="http://www.w3.org/2000/svg" width="18" height="19" viewBox="0 0 18 19" fill="none"><path d="M17 9.5C17 13.9183 13.4183 17.5 9 17.5C4.58172 17.5 1 13.9183 1 9.5C1 5.08172 4.58172 1.5 9 1.5C13.4183 1.5 17 5.08172 17 9.5Z" fill="white"></path><path d="M11.6666 6.83333L6.33328 12.1667M6.33339 6.83333L11.6667 12.1667M17 9.5C17 13.9183 13.4183 17.5 9 17.5C4.58172 17.5 1 13.9183 1 9.5C1 5.08172 4.58172 1.5 9 1.5C13.4183 1.5 17 5.08172 17 9.5Z" stroke="#F55D48" stroke-width="1.5" stroke-linecap="round"></path></svg> 