<?xml version="1.0" encoding="UTF-8"?> <svg xmlns="http://www.w3.org/2000/svg" width="40" height="40" viewBox="0 0 40 40" fill="none"><rect x="0.5" y="0.5" width="39" height="39" rx="19.5" fill="white"></rect><rect x="0.5" y="0.5" width="39" height="39" rx="19.5" stroke="#ECECEC"></rect><path d="M26.4697 27.5303C26.7626 27.8232 27.2374 27.8232 27.5303 27.5303C27.8232 27.2374 27.8232 26.7626 27.5303 26.4697L26.4697 27.5303ZM24.6029 19.1765C24.6029 22.1734 22.1734 24.6029 19.1765 24.6029V26.1029C23.0019 26.1029 26.1029 23.0019 26.1029 19.1765H24.6029ZM19.1765 24.6029C16.1795 24.6029 13.75 22.1734 13.75 19.1765H12.25C12.25 23.0019 15.3511 26.1029 19.1765 26.1029V24.6029ZM13.75 19.1765C13.75 16.1795 16.1795 13.75 19.1765 13.75V12.25C15.3511 12.25 12.25 15.3511 12.25 19.1765H13.75ZM19.1765 13.75C22.1734 13.75 24.6029 16.1795 24.6029 19.1765H26.1029C26.1029 15.3511 23.0019 12.25 19.1765 12.25V13.75ZM27.5303 26.4697L24.0817 23.0211L23.0211 24.0817L26.4697 27.5303L27.5303 26.4697Z" fill="#BFBFBF"></path></svg> 