<?xml version="1.0" encoding="UTF-8"?> <svg xmlns="http://www.w3.org/2000/svg" width="16" height="16" viewBox="0 0 16 16" fill="none"><path d="M14.4697 15.5303C14.7626 15.8232 15.2374 15.8232 15.5303 15.5303C15.8232 15.2374 15.8232 14.7626 15.5303 14.4697L14.4697 15.5303ZM12.6029 7.17647C12.6029 10.1734 10.1734 12.6029 7.17647 12.6029V14.1029C11.0019 14.1029 14.1029 11.0019 14.1029 7.17647H12.6029ZM7.17647 12.6029C4.17951 12.6029 1.75 10.1734 1.75 7.17647H0.25C0.25 11.0019 3.35109 14.1029 7.17647 14.1029V12.6029ZM1.75 7.17647C1.75 4.17951 4.17951 1.75 7.17647 1.75V0.25C3.35109 0.25 0.25 3.35109 0.25 7.17647H1.75ZM7.17647 1.75C10.1734 1.75 12.6029 4.17951 12.6029 7.17647H14.1029C14.1029 3.35109 11.0019 0.25 7.17647 0.25V1.75ZM15.5303 14.4697L12.0817 11.0211L11.0211 12.0817L14.4697 15.5303L15.5303 14.4697Z" fill="#BFBFBF"></path></svg> 