<?xml version="1.0" encoding="UTF-8"?> <svg xmlns="http://www.w3.org/2000/svg" width="40" height="40" viewBox="0 0 40 40" fill="none"><rect x="0.5" y="0.5" width="39" height="39" rx="19.5" fill="white"></rect><rect x="0.5" y="0.5" width="39" height="39" rx="19.5" stroke="#B3E06D"></rect><path d="M21.0366 14.8665L22.0925 16.9957C22.2364 17.2921 22.6204 17.5764 22.9444 17.6309L24.8582 17.9515C26.082 18.1571 26.37 19.0524 25.4881 19.9355L24.0003 21.4356C23.7483 21.6897 23.6103 22.1796 23.6883 22.5305L24.1142 24.3875C24.4502 25.8574 23.6763 26.426 22.3864 25.6578L20.5926 24.5871C20.2687 24.3935 19.7347 24.3935 19.4048 24.5871L17.611 25.6578C16.3271 26.426 15.5472 25.8513 15.8832 24.3875L16.3091 22.5305C16.3871 22.1796 16.2491 21.6897 15.9971 21.4356L14.5093 19.9355C13.6334 19.0524 13.9154 18.1571 15.1392 17.9515L17.053 17.6309C17.371 17.5764 17.7549 17.2921 17.8989 16.9957L18.9548 14.8665C19.5307 13.7112 20.4666 13.7112 21.0366 14.8665Z" fill="#B3E06D"></path></svg> 