<?xml version="1.0" encoding="UTF-8"?> <svg xmlns="http://www.w3.org/2000/svg" width="25" height="24" viewBox="0 0 25 24" fill="none"><circle cx="12.5" cy="12" r="12" fill="#B3E06D"></circle><path d="M18.038 14.7548V16.4223C18.0406 17.0598 17.4674 17.5921 16.8238 17.534C11.2691 17.5384 6.96143 13.1907 6.96577 7.67324C6.90781 7.03309 7.43747 6.46208 8.07411 6.46148H9.74497C10.0153 6.45882 10.2773 6.55435 10.4822 6.73025C11.0649 7.23035 11.4397 8.92775 11.2955 9.60253C11.1829 10.1294 10.6518 10.4979 10.2908 10.8583C11.0836 12.2499 12.2381 13.4021 13.6325 14.1934C13.9936 13.833 14.3629 13.303 14.8907 13.1907C15.5679 13.0465 17.2762 13.4218 17.7743 14.0085C17.9509 14.2166 18.0448 14.4822 18.038 14.7548Z" fill="white"></path></svg> 