<?xml version="1.0" encoding="UTF-8"?> <svg xmlns="http://www.w3.org/2000/svg" width="18" height="18" viewBox="0 0 18 18" fill="none"><path d="M16.2721 13.8438V16.2984C16.273 16.5262 16.2263 16.7518 16.1351 16.9606C16.0438 17.1693 15.9099 17.3567 15.742 17.5108C15.5741 17.6648 15.3758 17.7821 15.16 17.8551C14.9441 17.9281 14.7154 17.9552 14.4885 17.9347C11.9708 17.6612 9.55237 16.8008 7.42755 15.4229C5.45068 14.1667 3.77464 12.4907 2.51846 10.5138C1.13571 8.37934 0.275203 5.94917 0.00664094 3.42018C-0.013805 3.19392 0.0130841 2.96589 0.0855958 2.7506C0.158108 2.5353 0.274653 2.33747 0.427813 2.16969C0.580973 2.0019 0.76739 1.86785 0.975197 1.77606C1.183 1.68427 1.40765 1.63676 1.63482 1.63654H4.08937C4.48644 1.63263 4.87138 1.77324 5.17245 2.03216C5.47351 2.29108 5.67016 2.65063 5.72573 3.04381C5.82933 3.82932 6.02146 4.60059 6.29846 5.34291C6.40854 5.63575 6.43236 5.95402 6.36711 6.25999C6.30186 6.56596 6.15026 6.84681 5.93028 7.06927L4.89119 8.10836C6.05591 10.1567 7.75192 11.8527 9.80028 13.0175L10.8394 11.9784C11.0618 11.7584 11.3427 11.6068 11.6486 11.5415C11.9546 11.4763 12.2729 11.5001 12.5657 11.6102C13.308 11.8872 14.0793 12.0793 14.8648 12.1829C15.2623 12.239 15.6252 12.4392 15.8847 12.7454C16.1442 13.0516 16.2821 13.4426 16.2721 13.8438Z" fill="#F55D48"></path><path d="M10.5857 4.09109C11.3848 4.247 12.1193 4.63784 12.695 5.21358C13.2708 5.78932 13.6616 6.52376 13.8175 7.3229M10.5857 0.818359C12.246 1.00281 13.7943 1.74632 14.9763 2.92682C16.1582 4.10732 16.9037 5.65464 17.0902 7.31472" stroke="#F55D48" stroke-width="1.63636" stroke-linecap="round" stroke-linejoin="round"></path></svg> 