<?xml version="1.0" encoding="UTF-8"?> <svg xmlns="http://www.w3.org/2000/svg" width="24" height="25" viewBox="0 0 24 25" fill="none"><circle cx="12" cy="12.5" r="12" fill="white"></circle><path d="M17.5381 15.2548V16.9224C17.5407 17.5598 16.9676 18.0921 16.324 18.0341C10.7693 18.0384 6.46155 13.6907 6.4659 8.1733C6.40793 7.53315 6.9376 6.96214 7.57423 6.96154H9.24509C9.51539 6.95889 9.77742 7.05441 9.98237 7.23031C10.565 7.73041 10.9398 9.42782 10.7956 10.1026C10.683 10.6294 10.152 10.998 9.79091 11.3583C10.5838 12.7499 11.7383 13.9021 13.1326 14.6934C13.4937 14.3331 13.863 13.8031 14.3909 13.6907C15.068 13.5466 16.7763 13.9219 17.2744 14.5086C17.4511 14.7167 17.5449 14.9822 17.5381 15.2548Z" fill="#B3E06D"></path></svg> 