<?xml version="1.0" encoding="UTF-8"?> <svg xmlns="http://www.w3.org/2000/svg" width="24" height="24" viewBox="0 0 24 24" fill="none"><circle cx="12" cy="12" r="12" fill="#B3E06D"></circle><path fill-rule="evenodd" clip-rule="evenodd" d="M12.0001 18.4617C15.5687 18.4617 18.4617 15.5687 18.4617 12.0001C18.4617 8.4315 15.5687 5.53857 12.0001 5.53857C8.4315 5.53857 5.53857 8.4315 5.53857 12.0001C5.53857 15.5687 8.4315 18.4617 12.0001 18.4617ZM12.6924 8.41057C12.6924 8.02822 12.3825 7.71826 12.0001 7.71826C11.6178 7.71826 11.3078 8.02822 11.3078 8.41057V12.0003C11.3078 12.1839 11.3807 12.36 11.5106 12.4898L13.6644 14.6437C13.9348 14.9141 14.3731 14.9141 14.6435 14.6437C14.9139 14.3733 14.9139 13.935 14.6435 13.6646L12.6924 11.7135V8.41057Z" fill="white"></path></svg> 