<?xml version="1.0" encoding="UTF-8"?> <svg xmlns="http://www.w3.org/2000/svg" width="31" height="30" viewBox="0 0 31 30" fill="none"><rect x="0.75" width="30" height="30" rx="15" fill="#48C95F"></rect><path d="M21.6951 9.04687C20.2134 7.57031 18.2378 6.75 16.1524 6.75C11.8171 6.75 8.30488 10.25 8.30488 14.5703C8.30488 15.9375 8.68902 17.3047 9.34756 18.4531L8.25 22.5L12.4207 21.4062C13.5732 22.0078 14.8354 22.3359 16.1524 22.3359C20.4878 22.3359 24 18.8359 24 14.5156C23.9451 12.4922 23.1768 10.5234 21.6951 9.04687ZM19.939 17.3594C19.7744 17.7969 19.0061 18.2344 18.622 18.2891C18.2927 18.3437 17.8537 18.3438 17.4146 18.2344C17.1402 18.125 16.7561 18.0156 16.3171 17.7969C14.3415 16.9766 13.0793 15.0078 12.9695 14.8437C12.8598 14.7344 12.1463 13.8047 12.1463 12.8203C12.1463 11.8359 12.6402 11.3984 12.8049 11.1797C12.9695 10.9609 13.189 10.9609 13.3537 10.9609C13.4634 10.9609 13.628 10.9609 13.7378 10.9609C13.8476 10.9609 14.0122 10.9062 14.1768 11.2891C14.3415 11.6719 14.7256 12.6562 14.7805 12.7109C14.8354 12.8203 14.8354 12.9297 14.7805 13.0391C14.7256 13.1484 14.6707 13.2578 14.561 13.3672C14.4512 13.4766 14.3415 13.6406 14.2866 13.6953C14.1768 13.8047 14.0671 13.9141 14.1768 14.0781C14.2866 14.2969 14.6707 14.8984 15.2744 15.4453C16.0427 16.1016 16.6463 16.3203 16.8659 16.4297C17.0854 16.5391 17.1951 16.4844 17.3049 16.375C17.4146 16.2656 17.7988 15.8281 17.9085 15.6094C18.0183 15.3906 18.1829 15.4453 18.3476 15.5C18.5122 15.5547 19.5 16.0469 19.6646 16.1563C19.8841 16.2656 19.9939 16.3203 20.0488 16.375C20.1037 16.5391 20.1037 16.9219 19.939 17.3594Z" fill="white"></path></svg> 